# xmcd
# 
# Track frame offsets:
#     150
#     13636
#     35961
#     51010
#     66735
# 
# Disc length: 1212
# 
# Revision: 0
# Processed by: cddbd v1.5.2PL0 Copyright (c) Steve Scherf et al.
# Submitted via: fre:ac v1.0.17
# 
DISCID=4704ba05
DTITLE=Popact - Popact
DYEAR=2009
DGENRE=Alt. Rock
TTITLE0=Sans Bruit
TTITLE1=Now
TTITLE2=Blame
TTITLE3=Blessed
TTITLE4=Tes Absences
EXTD=
EXTT0=
EXTT1=
EXTT2=
EXTT3=
EXTT4=
PLAYORDER=
